<mxfile host="www.draw.io" modified="2019-12-10T07:17:03.114Z" agent="Mozilla/5.0 (Windows NT 10.0; Win64; x64) AppleWebKit/537.36 (KHTML, like Gecko) Chrome/78.0.3904.108 Safari/537.36" etag="ncNYrZ_iftdKPmxkaPi0" version="12.3.9" type="github" pages="1">
  <diagram id="I5MpxVq-Gbgeys2D7ihi" name="Page-1">
    <mxGraphModel dx="1173" dy="623" grid="1" gridSize="10" guides="1" tooltips="1" connect="1" arrows="1" fold="1" page="1" pageScale="1" pageWidth="827" pageHeight="1169" math="0" shadow="0">
      <root>
        <mxCell id="0"/>
        <mxCell id="1" parent="0"/>
        <mxCell id="iLj26o8t3Bhd-I5MfLS2-13" value="硬件设备（光伏，电池，PLC...）" style="rounded=0;whiteSpace=wrap;html=1;" vertex="1" parent="1">
          <mxGeometry x="638" y="374" width="380" height="50" as="geometry"/>
        </mxCell>
        <mxCell id="iLj26o8t3Bhd-I5MfLS2-14" value="" style="rounded=0;whiteSpace=wrap;html=1;" vertex="1" parent="1">
          <mxGeometry x="639" y="180" width="377" height="100" as="geometry"/>
        </mxCell>
        <mxCell id="iLj26o8t3Bhd-I5MfLS2-24" style="edgeStyle=orthogonalEdgeStyle;rounded=0;orthogonalLoop=1;jettySize=auto;html=1;exitX=0;exitY=0.5;exitDx=0;exitDy=0;entryX=1;entryY=0.5;entryDx=0;entryDy=0;" edge="1" parent="1" source="iLj26o8t3Bhd-I5MfLS2-15" target="iLj26o8t3Bhd-I5MfLS2-23">
          <mxGeometry relative="1" as="geometry"/>
        </mxCell>
        <mxCell id="iLj26o8t3Bhd-I5MfLS2-15" value="数据采集" style="rounded=0;whiteSpace=wrap;html=1;" vertex="1" parent="1">
          <mxGeometry x="668" y="200" width="120" height="60" as="geometry"/>
        </mxCell>
        <mxCell id="iLj26o8t3Bhd-I5MfLS2-17" value="调度管理" style="rounded=0;whiteSpace=wrap;html=1;" vertex="1" parent="1">
          <mxGeometry x="862" y="200" width="120" height="60" as="geometry"/>
        </mxCell>
        <mxCell id="iLj26o8t3Bhd-I5MfLS2-18" value="IO驱动，数据协议" style="rounded=0;whiteSpace=wrap;html=1;" vertex="1" parent="1">
          <mxGeometry x="639" y="280" width="377" height="40" as="geometry"/>
        </mxCell>
        <mxCell id="iLj26o8t3Bhd-I5MfLS2-20" value="主机" style="rounded=0;whiteSpace=wrap;html=1;fillColor=#f5f5f5;strokeColor=#666666;fontColor=#333333;" vertex="1" parent="1">
          <mxGeometry x="639" y="140" width="377" height="40" as="geometry"/>
        </mxCell>
        <mxCell id="iLj26o8t3Bhd-I5MfLS2-21" value="" style="shape=flexArrow;endArrow=classic;html=1;entryX=0.5;entryY=1;entryDx=0;entryDy=0;exitX=0.5;exitY=0;exitDx=0;exitDy=0;" edge="1" parent="1" source="iLj26o8t3Bhd-I5MfLS2-13" target="iLj26o8t3Bhd-I5MfLS2-18">
          <mxGeometry width="50" height="50" relative="1" as="geometry">
            <mxPoint x="956" y="460" as="sourcePoint"/>
            <mxPoint x="676" y="510" as="targetPoint"/>
          </mxGeometry>
        </mxCell>
        <mxCell id="iLj26o8t3Bhd-I5MfLS2-32" value="存储" style="edgeStyle=orthogonalEdgeStyle;rounded=0;orthogonalLoop=1;jettySize=auto;html=1;exitX=0.5;exitY=1;exitDx=0;exitDy=0;" edge="1" parent="1" source="iLj26o8t3Bhd-I5MfLS2-23" target="iLj26o8t3Bhd-I5MfLS2-31">
          <mxGeometry relative="1" as="geometry"/>
        </mxCell>
        <mxCell id="iLj26o8t3Bhd-I5MfLS2-23" value="云服务器" style="rounded=0;whiteSpace=wrap;html=1;" vertex="1" parent="1">
          <mxGeometry x="250" y="200" width="120" height="60" as="geometry"/>
        </mxCell>
        <mxCell id="iLj26o8t3Bhd-I5MfLS2-56" value="" style="edgeStyle=orthogonalEdgeStyle;rounded=0;orthogonalLoop=1;jettySize=auto;html=1;" edge="1" parent="1" source="iLj26o8t3Bhd-I5MfLS2-31" target="iLj26o8t3Bhd-I5MfLS2-55">
          <mxGeometry relative="1" as="geometry"/>
        </mxCell>
        <mxCell id="iLj26o8t3Bhd-I5MfLS2-60" style="edgeStyle=orthogonalEdgeStyle;rounded=0;orthogonalLoop=1;jettySize=auto;html=1;exitX=0.5;exitY=1;exitDx=0;exitDy=0;" edge="1" parent="1" source="iLj26o8t3Bhd-I5MfLS2-31" target="iLj26o8t3Bhd-I5MfLS2-57">
          <mxGeometry relative="1" as="geometry"/>
        </mxCell>
        <mxCell id="iLj26o8t3Bhd-I5MfLS2-31" value="时序数据主库" style="rounded=0;whiteSpace=wrap;html=1;" vertex="1" parent="1">
          <mxGeometry x="260" y="500" width="100" height="60" as="geometry"/>
        </mxCell>
        <mxCell id="iLj26o8t3Bhd-I5MfLS2-55" value="时序数据从库" style="rounded=0;whiteSpace=wrap;html=1;" vertex="1" parent="1">
          <mxGeometry x="440" y="500" width="100" height="60" as="geometry"/>
        </mxCell>
        <mxCell id="iLj26o8t3Bhd-I5MfLS2-57" value="微电网项目模块" style="rounded=0;whiteSpace=wrap;html=1;fillColor=#f5f5f5;strokeColor=#666666;fontColor=#333333;" vertex="1" parent="1">
          <mxGeometry x="260" y="750" width="570" height="40" as="geometry"/>
        </mxCell>
        <mxCell id="iLj26o8t3Bhd-I5MfLS2-58" value="" style="rounded=0;whiteSpace=wrap;html=1;" vertex="1" parent="1">
          <mxGeometry x="260" y="790" width="570" height="270" as="geometry"/>
        </mxCell>
        <mxCell id="iLj26o8t3Bhd-I5MfLS2-62" style="edgeStyle=orthogonalEdgeStyle;rounded=0;orthogonalLoop=1;jettySize=auto;html=1;exitX=0.5;exitY=1;exitDx=0;exitDy=0;entryX=0.5;entryY=0;entryDx=0;entryDy=0;" edge="1" parent="1" source="iLj26o8t3Bhd-I5MfLS2-49" target="iLj26o8t3Bhd-I5MfLS2-61">
          <mxGeometry relative="1" as="geometry">
            <Array as="points">
              <mxPoint x="360" y="920"/>
              <mxPoint x="200" y="920"/>
              <mxPoint x="200" y="1160"/>
              <mxPoint x="360" y="1160"/>
            </Array>
          </mxGeometry>
        </mxCell>
        <mxCell id="iLj26o8t3Bhd-I5MfLS2-49" value="实时数据模块" style="rounded=0;whiteSpace=wrap;html=1;" vertex="1" parent="1">
          <mxGeometry x="300" y="820" width="120" height="60" as="geometry"/>
        </mxCell>
        <mxCell id="iLj26o8t3Bhd-I5MfLS2-50" value="历史归档模块" style="rounded=0;whiteSpace=wrap;html=1;" vertex="1" parent="1">
          <mxGeometry x="668" y="820" width="120" height="60" as="geometry"/>
        </mxCell>
        <mxCell id="iLj26o8t3Bhd-I5MfLS2-64" style="edgeStyle=orthogonalEdgeStyle;rounded=0;orthogonalLoop=1;jettySize=auto;html=1;exitX=0.5;exitY=1;exitDx=0;exitDy=0;entryX=0.5;entryY=0;entryDx=0;entryDy=0;" edge="1" parent="1" source="iLj26o8t3Bhd-I5MfLS2-51" target="iLj26o8t3Bhd-I5MfLS2-61">
          <mxGeometry relative="1" as="geometry">
            <Array as="points">
              <mxPoint x="550" y="920"/>
              <mxPoint x="200" y="920"/>
              <mxPoint x="200" y="1160"/>
              <mxPoint x="360" y="1160"/>
            </Array>
          </mxGeometry>
        </mxCell>
        <mxCell id="iLj26o8t3Bhd-I5MfLS2-51" value="数据接口模块" style="rounded=0;whiteSpace=wrap;html=1;" vertex="1" parent="1">
          <mxGeometry x="490" y="820" width="120" height="60" as="geometry"/>
        </mxCell>
        <mxCell id="iLj26o8t3Bhd-I5MfLS2-63" style="edgeStyle=orthogonalEdgeStyle;rounded=0;orthogonalLoop=1;jettySize=auto;html=1;exitX=0.5;exitY=1;exitDx=0;exitDy=0;entryX=0.5;entryY=0;entryDx=0;entryDy=0;" edge="1" parent="1" source="iLj26o8t3Bhd-I5MfLS2-52" target="iLj26o8t3Bhd-I5MfLS2-61">
          <mxGeometry relative="1" as="geometry"/>
        </mxCell>
        <mxCell id="iLj26o8t3Bhd-I5MfLS2-52" value="数据统计模块" style="rounded=0;whiteSpace=wrap;html=1;" vertex="1" parent="1">
          <mxGeometry x="300" y="950" width="120" height="60" as="geometry"/>
        </mxCell>
        <mxCell id="iLj26o8t3Bhd-I5MfLS2-53" value="监控报警模块" style="rounded=0;whiteSpace=wrap;html=1;" vertex="1" parent="1">
          <mxGeometry x="490" y="950" width="120" height="60" as="geometry"/>
        </mxCell>
        <mxCell id="iLj26o8t3Bhd-I5MfLS2-61" value="API接口" style="rounded=0;whiteSpace=wrap;html=1;" vertex="1" parent="1">
          <mxGeometry x="300" y="1230" width="120" height="60" as="geometry"/>
        </mxCell>
      </root>
    </mxGraphModel>
  </diagram>
</mxfile>
